<svg width="102" height="72" xmlns="http://www.w3.org/2000/svg"><g fill="#E11937" fill-rule="nonzero"><path d="M25.443 9.257c-9.32 0-15.034 7.337-15.034 14.743 0 8.914 7.21 14.742 15.102 14.742 5.237 0 10.204-2.33 14.421-6.102v11.04C35.51 46.354 29.456 48 24.762 48 11.292 48 0 36.96 0 24 0 10.286 11.36 0 24.83 0 30 0 36.055 1.577 40 3.566V14.4c-4.966-3.292-10-5.143-14.557-5.143zM68.351 48C54.605 48 43 37.371 43 24 43 10.492 54.536 0 68.973 0c5.25 0 11.743 1.371 15.75 3.223v10.765c-4.559-2.605-10.43-4.731-15.543-4.731-9.463 0-15.611 7.337-15.611 14.743 0 8.708 7.253 15.017 15.75 15.017 1.796 0 3.523-.137 5.733-.96v-8.64h-7.736v-9.12H85v24.274C79.956 46.835 74.293 48 68.351 48zM93 47V1h9v46z"/></g></svg>