<svg width="298" height="72" xmlns="http://www.w3.org/2000/svg"><g fill="none" fill-rule="evenodd"><path d="M4.885 35.226l-.022 2.995v.933l.022.683c-.022.502.078.604.52.604 1.606 0 2.545-.202 3.116-.657.691-.576 1.118-1.51 1.118-2.493 0-1.407-.771-2.496-1.982-2.824-.502-.127-1.189-.177-2.126-.177-.544 0-.646.05-.646.407v.53zm-.022 8.348c0 1.321.022 3.572.045 4.404.027.607.223.812 1.043 1.007.545.124.643.205.643.59v.485c0 .303-.081.409-.322.409-.176 0-.569-.028-.987-.049a34.714 34.714 0 0 0-3.948 0c-.422.02-.84.049-.99.049-.27 0-.347-.106-.347-.41v-.484c0-.385.102-.466.674-.59.802-.195.997-.4 1.018-1.007.027-.984.051-2.833.051-4.404V39.48c0-1.566-.024-3.372-.051-4.383-.021-.63-.216-.807-1.018-1.01-.572-.132-.674-.2-.674-.582v-.502c0-.304.078-.409.301-.409.243 0 .614.028 1.036.055.432.023 1.002.05 1.79.05 1.24 0 1.24 0 3.541-.077.487-.028.939-.028 1.333-.028 1.733 0 2.898.385 3.736 1.268.767.788 1.239 1.947 1.239 3.083 0 1.933-1.189 3.732-2.846 4.181-.546.153-.592.178-.592.305 0 .028.027.074.101.152.166.3.316.552.393.785.519 1.187 2.205 4.145 3.07 5.33.678.964.994 1.237 1.738 1.411.475.13.498.159.498.573v.435c0 .222-.154.352-.398.352h-.193a47.512 47.512 0 0 0-2.023-.049c-.368 0-.885.02-1.478.049h-.4c-.468 0-.468 0-1.062-1.534-.219-.555-1.905-4.168-2.794-6.037-.42-.913-.522-.987-1.113-.987h-.174c-.098.022-.172.022-.172.022l-.4-.022c-.144 0-.268.174-.268.457v1.206zM23.97 45.373c0-.383-.027-.454-.2-.454-.049 0-.1 0-.175.023l-.27.048c-1.363.28-1.804.41-2.324.71-.715.408-1.04.934-1.04 1.62 0 .856.568 1.42 1.412 1.42.717 0 1.556-.385 2.104-.94.368-.405.494-.806.494-1.715v-.712zm-6.085-6.138c.074-.684.246-.89 1.013-1.092.868-.201 2.251-.377 3.192-.377 3.166 0 4.611 1.135 4.611 3.588l-.072 4.654c0 2.529 0 2.546.296 2.832.222.173.467.247 1.066.3.495.05.64.128.64.435v.381c0 .283-.075.33-.52.438l-2.93.506c-.147.019-.345.046-.543.046-.247 0-.398-.105-.445-.38-.074-.172-.148-.813-.122-.991 0-.466-.054-.668-.178-.668-.024 0-.098.056-.172.106-.146.148-1.16.873-1.507 1.078-.668.4-1.583.654-2.448.654-1.562 0-2.796-1.379-2.796-3.174 0-.86.273-1.941.619-2.478.198-.276.22-.301 1.533-.555l3.264-.654c1.41-.31 1.585-.434 1.585-1.192v-.428c0-1.721-.646-2.375-2.301-2.375-1.067 0-2.474.4-3.414.956-.2.136-.297.155-.37.155-.121 0-.177-.1-.177-.3v-.157l.176-1.308zM32.516 43.905c0 2.775 1.187 4.73 2.917 4.73 1.783 0 2.65-1.489 2.65-4.521 0-1.567-.173-2.609-.544-3.316-.442-.781-1.214-1.266-2.079-1.266-1.733 0-2.944 1.8-2.944 4.373zm7.755-12.52c.123-.028.245-.028.3-.028.219 0 .343.152.343.456l-.176 7.719v4.504c0 3.284.024 4.114.2 4.447.222.48.396.576 1.459.678.222 0 .346.107.346.283v.464c0 .253-.074.331-.517.409l-3.193.63c-.198.024-.345.053-.445.053-.193 0-.26-.128-.282-.457l-.078-1.07c-.046-.609-.046-.633-.218-.633a.54.54 0 0 0-.224.145c-.2.205-.865.718-1.313 1.052-.74.506-1.383.708-2.198.708-2.725 0-4.677-2.517-4.677-6.08 0-4.096 2.326-6.9 5.69-6.9.67 0 1.98.273 2.298.48.072.074.148.1.172.1.1 0 .202-.202.202-.403 0-.028 0-.028-.028-.452l-.022-2.695c0-1.314-.074-1.42-1.163-1.597-.469-.045-.567-.117-.567-.48v-.474c0-.255.098-.333.495-.381l3.596-.478zM48.607 41.806c-.274.69-.396 1.694-.396 3.287 0 1.951.074 2.633.273 3.083.273.533 1.082.964 1.854.964 1.917 0 3.349-2.075 3.349-4.881 0-2.648-1.086-4.394-2.741-4.394-.953 0-1.891.756-2.34 1.94zm-3.144-2.598c0-2.16-.02-4.687-.069-5.148-.051-.58-.324-.805-1.018-.886-.617-.043-.768-.145-.768-.456v-.424c0-.228.102-.305.424-.354l3.607-.528.475-.077c.17 0 .296.174.296.424 0 .081 0 .205-.027.354-.024.636-.05 1.368-.073 3.412 0 1.571-.025 2.75-.048 3.474l-.024.438v.17c0 .103.047.154.12.154.126 0 .421-.28.99-.883.79-.862 1.403-1.112 2.61-1.112 2.845 0 4.646 2.25 4.646 5.863 0 4.249-2.668 7.116-6.61 7.116-1.337 0-3.118-.46-4.185-1.085-.32-.187-.44-.392-.44-.82v-.286c.046-2.17.073-4.828.094-7.958v-1.388zM61.545 44.09c0 2.718 1.433 4.724 3.403 4.724 1.757 0 3.115-1.87 3.115-4.304 0-2.853-1.387-4.878-3.34-4.878-1.84 0-3.178 1.873-3.178 4.458zm8.568-3.695c.573 1.01.892 2.245.892 3.536 0 1.745-.567 3.464-1.559 4.68-1.137 1.399-2.818 2.134-4.945 2.134-3.57 0-5.874-2.39-5.874-6.157 0-1.97.642-3.743 1.807-4.982 1.16-1.26 2.59-1.84 4.514-1.84 2.348 0 4.2.933 5.165 2.629zM84.725 43.905c.022 2.379.045 3.766.096 4.2.099.685.343.858 1.282.982.401.053.472.127.472.435v.336c0 .303-.07.381-.42.428l-3.363.459c-.174.022-.322.05-.346.05-.3 0-.3 0-.474-1.736-.02-.374-.094-.548-.242-.548-.075 0-.199.074-.52.396-1.684 1.562-2.178 1.838-3.515 1.838-.937 0-1.903-.254-2.556-.685-.792-.485-1.14-1.351-1.14-2.74 0-.198 0-.64.026-1.088v-3.54c0-2.955-.073-3.184-1.067-3.279-.568-.05-.689-.128-.689-.414v-.424c0-.3.067-.354.42-.407l3.644-.347c.253-.028.425-.055.446-.055.176 0 .25.101.25.3 0 .124 0 .331-.026.562a54.257 54.257 0 0 0-.148 4.013v1.978c0 2.298.05 2.676.444 3.234.3.428.839.658 1.537.658 1.16 0 2.203-.56 2.645-1.418.323-.58.397-1.218.397-3.188v-1.237c0-.96-.052-2.304-.1-2.553-.097-.455-.346-.66-.97-.731-.565-.052-.687-.124-.687-.385v-.448c0-.276.074-.361.42-.383l3.56-.375c.145-.027.297-.027.402-.027.244 0 .318.077.318.3l-.025.657c-.026.66-.026.66-.049 1.772-.022.455-.022 1.01-.022 1.64v1.77M90.874 43.905c0 2.775 1.186 4.73 2.918 4.73 1.782 0 2.646-1.489 2.646-4.521 0-1.567-.174-2.609-.542-3.316-.446-.781-1.211-1.266-2.078-1.266-1.733 0-2.944 1.8-2.944 4.373zm7.767-12.52c.12-.028.247-.028.298-.028.22 0 .345.152.345.456l-.174 7.719v4.504c0 3.284.028 4.114.198 4.447.222.48.398.576 1.444.678.225 0 .348.107.348.283v.464c0 .253-.075.331-.516.409l-3.18.63c-.2.024-.349.053-.444.053-.201 0-.272-.128-.3-.457l-.07-1.07c-.054-.609-.054-.633-.23-.633a.56.56 0 0 0-.22.145c-.193.205-.863.718-1.309 1.052-.744.506-1.385.708-2.203.708-2.72 0-4.673-2.517-4.673-6.08 0-4.096 2.323-6.9 5.688-6.9.673 0 1.979.273 2.304.48.071.074.145.1.17.1.097 0 .199-.202.199-.403 0-.028 0-.028-.026-.452l-.026-2.695c0-1.314-.074-1.42-1.159-1.597-.472-.045-.57-.117-.57-.48v-.474c0-.255.098-.333.494-.381l3.612-.478zM110.501 39.48c0-1.566-.022-3.372-.05-4.383-.024-.63-.222-.807-1.035-1.01-.572-.132-.674-.2-.674-.582v-.502c0-.304.078-.409.324-.409.147 0 .591.028 1.018.055.469.023 1.161.05 1.926.05.901 0 1.523-.027 2.017-.05.419-.027.843-.055.989-.055.246 0 .319.105.319.409v.502c0 .383-.1.45-.643.581-.839.204-1.013.381-1.039 1.011-.024.837-.05 3.07-.05 4.383v2.68c0 2.908.126 4.046.57 4.855.669 1.213 2.057 1.92 3.787 1.92 2.074 0 3.536-.856 4.08-2.4.323-.959.345-1.34.345-4.497V39.48c0-1.492-.022-3.422-.048-4.383-.024-.63-.198-.807-1.035-1.01-.572-.132-.67-.2-.67-.582v-.502c0-.304.074-.409.32-.409.17 0 .592.028 1.018.055.465.023.961.05 1.405.05.546 0 .993-.027 1.471-.05.42-.027.843-.055 1.013-.055.248 0 .32.105.32.409v.502c0 .383-.097.45-.668.581-.835.204-.997.381-1.021 1.011-.026.863-.05 2.996-.05 4.383v2.453c0 2.986-.052 3.743-.245 4.603-.646 2.784-2.993 4.209-6.93 4.209-3.041 0-5.183-.992-6.094-2.793-.525-1.063-.67-2.251-.67-5.914V39.48M127.003 38.75c0-.38.048-.455.37-.505l3.513-.424c.222-.028.394-.055.422-.055.198 0 .317.176.346.48.022.204.074 1.386.074 1.515.026.302.119.528.245.528.077 0 .177-.07.274-.174l.248-.278.47-.474c1.185-1.297 1.803-1.597 3.238-1.597 1.77 0 3.078.684 3.549 1.866.248.607.248.607.248 4.299v.836c0 1.517.022 2.959.051 3.46.047.536.195.68.94.913.74.226.766.254.766.587v.41c0 .257-.074.332-.272.332h-.178c-.64-.049-1.805-.075-2.72-.075-.935 0-2.086.026-2.733.075h-.17c-.2 0-.273-.106-.273-.332v-.41c0-.333.027-.36.768-.587.74-.233.884-.377.93-.912.021-.58.049-1.972.049-3.46v-.837c0-1.589-.068-2.274-.259-2.805-.274-.685-.944-1.063-1.858-1.063-1.012 0-1.95.48-2.522 1.29-.419.58-.52 1.143-.52 2.76v.654c0 1.57.027 2.881.051 3.46.05.536.197.68.915.913.74.254.768.254.768.587v.41c0 .226-.074.332-.276.332h-.172a42.76 42.76 0 0 0-2.696-.075c-.94 0-2.153.026-2.747.075h-.174c-.195 0-.269-.106-.269-.332v-.41c0-.333.023-.36.765-.587.744-.233.89-.377.942-.912.024-.53.049-1.89.049-3.46v-.884c0-1.243-.149-3.207-.298-3.665-.124-.435-.372-.587-1.137-.637-.595-.05-.717-.102-.717-.322v-.51M148.609 34.086c0 1.039-.865 1.874-1.957 1.874-1.06 0-1.924-.811-1.924-1.853 0-1.078.81-1.813 2.024-1.813 1.09 0 1.857.735 1.857 1.792zm-3.09 8.606c0-2.982-.052-3.16-1.068-3.279-.569-.05-.693-.128-.693-.383v-.455c0-.28.078-.354.422-.385l3.538-.37.199-.027c.07-.027.144-.027.196-.027.222 0 .319.176.319.48 0 .05 0 .05-.021.99-.026.424-.05 2.88-.05 4.264v1.267c0 1.517.024 2.854.05 3.46.052.536.198.68.906.913.735.226.76.254.76.587v.41c0 .226-.071.332-.27.332h-.171c-.633-.049-1.742-.075-2.684-.075-.942 0-2.127.026-2.746.075h-.176c-.222 0-.272-.075-.272-.332v-.41c0-.333 0-.333.767-.587.765-.252.892-.377.942-.912.022-.657.052-1.817.052-3.46v-2.076zM163.583 38.55c0 .35 0 .35-.474.48-.322.152-.472.383-.89 1.465-.269.705-.269.705-2.386 5.966-.787 1.969-.965 2.427-1.135 2.905-.227.59-.227.62-.326.771-.074.125-.174.18-.518.226-.22.031-.293.031-1.163.18-.098.022-.194.022-.272.022-.25 0-.274-.022-.546-.838-.319-.863-.543-1.422-1.68-4.582-1.19-3.262-1.68-4.549-2.104-5.539-.171-.424-.223-.452-.791-.657-.148-.048-.222-.198-.222-.398v-.458c0-.25.1-.327.42-.327.076 0 .076 0 1.214.055.27.022.717.022 1.308.022 1.166 0 1.884-.022 2.625-.077h.291c.255 0 .351.077.351.327v.458c0 .327-.022.327-.692.502-.72.182-.992.36-.992.708 0 .128.027.302.105.502.12.387.244.758.343 1.142l.618 1.995c.767 2.53 1.285 4.124 1.335 4.124.024 0 .048-.13.098-.278l.098-.357.226-.683c.124-.407.296-.887.444-1.439l.719-1.975c.765-2.196.963-2.88.963-3.16 0-.3-.393-.58-1.013-.707-.298-.078-.37-.148-.37-.374v-.458c0-.226.098-.327.29-.327.08 0 .154 0 .278.027.296.028 1.31.05 1.809.05.45 0 1.021-.022 1.543-.077h.22c.2 0 .276.077.276.327v.458M168.554 42.085l1.134-.1c.448-.028 1.659-.13 2.103-.2.37-.026.52-.174.52-.506a2.51 2.51 0 0 0-.47-1.414c-.298-.41-.792-.63-1.457-.63-.794 0-1.585.371-2.03.96-.397.482-.69 1.21-.69 1.638 0 .205.096.283.34.283l.55-.03zm-.423 1.244c-.919 0-1.017.07-1.017.93 0 2.453 1.56 4.252 3.687 4.252 1.236 0 3.016-.614 3.822-1.29.05-.056.074-.075.1-.075.072 0 .144.1.144.223 0 .38-.22 2.05-.27 2.23-.074.128-.345.287-1.027.563a9.017 9.017 0 0 1-3.114.583c-3.612 0-6.112-2.491-6.112-6.126 0-3.92 2.65-6.853 6.238-6.853 2.918 0 4.508 1.671 4.508 4.68 0 .678-.27.883-1.204.883h-5.755zM177.143 38.878c0-.38.074-.455.444-.509l3.64-.548.198-.028c.098-.027.169-.027.198-.027.17 0 .297.176.297.424l-.025 1.12c0 1.085.025 1.259.22 1.259.073 0 .299-.174.471-.4l.963-1.116c.69-.778.94-.96 1.655-1.139a4.686 4.686 0 0 1 1.179-.148c.634 0 .91.176.887.553v.05l-.1 1.772c-.028.455-.122.63-.346.63-.049 0-.123-.023-.22-.047-.294-.103-.855-.155-1.424-.155-.914 0-1.63.257-2.103.71-.565.577-.663 1.089-.663 3.588v1.14l.05 1.614c.024.833.074 1.041.418 1.22.195.094.224.094 1.289.35.76.175.787.175.787.512v.357c0 .257-.124.409-.324.409h-.124c-.713-.028-2.694-.075-3.68-.075-.795 0-1.952.026-2.57.075h-.175c-.196 0-.275-.106-.275-.332v-.41c0-.333 0-.333.77-.587.766-.252.89-.377.942-.912.024-.632.046-1.79.046-3.46v-.837c0-1.263-.169-2.702-.423-3.388-.22-.631-.59-.856-1.38-.883-.548-.028-.622-.078-.622-.35v-.432M197.335 40.364c-.026.407-.076.462-.347.462h-.4c-.246 0-.246 0-.487-.657-.277-.661-1.044-1.039-2.13-1.039-1.187 0-1.981.654-1.981 1.64 0 .689.346 1.14 1.312 1.7.57.322.57.322 2.224 1.085 1.607.735 2.55 1.97 2.55 3.362 0 2.297-2.056 3.828-5.168 3.828-1.19 0-2.43-.254-3.244-.685-.346-.152-.42-.307-.396-.694l.155-1.718c.022-.303.146-.428.415-.428h.422c.272 0 .296 0 .444.658.223.862 1.313 1.516 2.472 1.516 1.265 0 2.157-.685 2.157-1.668 0-.763-.4-1.166-1.759-1.796-3.216-1.494-4.005-2.356-4.005-4.223 0-2.472 1.831-3.941 4.892-3.941.94 0 1.959.176 2.551.424.398.155.495.283.495.587v.07l-.172 1.517M205.12 34.086c0 1.039-.87 1.874-1.958 1.874-1.063 0-1.924-.811-1.924-1.853 0-1.078.813-1.813 2.022-1.813 1.092 0 1.86.735 1.86 1.792zm-3.095 8.606c0-2.982-.048-3.16-1.06-3.279-.571-.05-.692-.128-.692-.383v-.455c0-.28.07-.354.417-.385l3.535-.37.203-.027c.074-.027.148-.027.198-.027.222 0 .322.176.322.48 0 .05 0 .05-.026.99-.027.424-.051 2.88-.051 4.264v1.267c0 1.517.024 2.854.051 3.46.05.536.198.68.915.913.74.226.761.254.761.587v.41c0 .226-.072.332-.263.332h-.178a42.642 42.642 0 0 0-2.695-.075c-.943 0-2.126.026-2.746.075h-.176c-.22 0-.267-.075-.267-.332v-.41c0-.333 0-.333.763-.587.767-.252.89-.377.94-.912.027-.657.05-1.817.05-3.46v-2.076zM210.186 41.405c-.022-1.47-.022-1.493-.614-1.493-.102 0-.102 0-.447.024h-.644c-.198.027-.343.027-.368.027-.152 0-.247-.074-.247-.151 0-.05.024-.18.095-.332l.298-.831c.198-.556.25-.61.493-.61.077 0 .298.027.596.054.1.023.2.023.296.023.446 0 .617-.15.617-.528 0-.126-.023-.923-.075-1.654-.022-.41-.022-.785-.022-1.065 0-.553.148-.762.686-.957l1.553-.559c.495-.18.495-.18.565-.18.15 0 .248.18.248.382 0 .155-.022.431-.074.735-.072.63-.244 2.758-.244 3.224 0 .452.119.524.839.524h2.029a8.71 8.71 0 0 0 1.285-.072h.146c.13 0 .2.072.2.202 0 .151-.07.407-.293 1.164-.155.533-.277.631-.673.631-.097 0-.097 0-.74-.051-.175 0-.471-.023-.938-.047-.548-.028-.718-.028-.939-.028-.797 0-.797 0-.797 1.089v3.891c0 2.022.053 2.676.3 3.16.225.477.718.732 1.482.732.546 0 1.142-.098 2.004-.33.201-.051.32-.074.368-.074.128 0 .176.075.176.206 0 .353-.198 1.549-.27 1.65-.224.26-1.931.584-3.092.584-2.815 0-3.87-.837-3.87-3.02l.027-1.493c.022-.602.044-1.087.044-1.415v-3.412M231.646 38.497c0 .254-.053.304-.272.404-.522.253-.574.334-1.142 1.823a31.226 31.226 0 0 1-.717 1.866l-1.338 3.362c-.519 1.322-1.01 2.633-1.532 3.984-1.21 3.237-1.331 3.538-2 4.269-.573.659-1.622 1.118-2.61 1.118-1.98 0-2.226-.156-2.226-1.418 0-.257 0-.456.025-.583l.026-.46c0-.272.074-.373.241-.373.081 0 .128 0 .199.024a6.416 6.416 0 0 0 1.932.276c1.327 0 2.238-.708 2.606-2.069.056-.177.102-.326.174-.434 0-.024.026-.047.026-.047 0-.052-.074-.102-.144-.148-.297-.155-.324-.206-.99-1.863-.831-2.022-1.672-4.02-2.514-6.015-.295-.708-.665-1.592-1.035-2.452-.276-.607-.372-.68-.943-.86-.172-.054-.222-.125-.222-.404v-.431c0-.199.102-.3.3-.3h.17c.223.027 2.446.077 2.922.077.656 0 1.836-.022 2.256-.077h.224c.224 0 .345.122.345.3v.431c0 .35 0 .35-.915.583-.518.128-.79.4-.79.732 0 .151.053.357.155.583.143.403.289.805.413 1.238l.792 2.07.4 1.014c.167.454.469 1.213.665 1.744.148.428.198.533.25.533.148 0 2.277-6.825 2.277-7.307 0-.355-.252-.586-.72-.688-.594-.12-.646-.152-.646-.502v-.431c0-.223.077-.3.272-.3h.226c.515.055 1.16.077 1.827.077.545 0 1.046-.022 1.463-.05.094-.027.2-.027.243-.027.224 0 .327.101.327.3v.431" fill="#A32D2A"/><path d="M249.328 45.86c-.109.548-.79 1.29-1.592 1.374-1.125.026-2.065-.897-2.122-1.675-.041-.738.01-.926.01-.926l3.783.128c-.009.414.026.626-.08 1.098zm.508-2.52l-.143.329-4.12-.11-.276-.348-.272.006v2.53c-.06 1.156 1.114 2.558 2.692 2.551 1.473-.077 2.19-1.476 2.288-2.777l.158-2.189-.327.007zM246.756 55.305l.803 1.612.174-.102-.09-.425 3.774-1.671.195.236.325-.155-.7-1.449-.226.102.007.445-3.709 1.623-.326-.248-.227.032M247.983 53.615v.178l-1.08.222c-.614-.417-.9-.859-1.08-1.58-.354-1.404 0-2.712 1.832-3.224 1.933-.607 2.732.65 3.15 2.113.118.431.127.744.199 1.213l-1.023.286-.142-.209c.403-.364.531-.907.397-1.424-.198-.796-1.11-1.248-1.857-.944l.539 2.344.417.173.072.224-1.092.281-.07-.226.16-.246-.595-2.358c-.911.053-1.584.993-1.388 1.883.127.57.81 1.216 1.56 1.294M247.176 42.258c-.129-.287 0-.63.295-.763.286-.117.627-.036.742.209.15.293 0 .631-.272.836a.587.587 0 0 1-.765-.282M250.411 57.256c-.13-.293-.013-.63.195-.76.26-.135.636.003.85.3a.571.571 0 1 1-1.046.46M278.992 68.314a.578.578 0 0 1 .31-.761c.301-.135.639 0 .76.28.11.293 0 .632-.293.774-.286.131-.627-.007-.777-.293M248.35 32.88l-.824 1.612.195.067.342-.293 3.647 1.88-.074.303.326.132.663-1.413-.238-.114-.334.243-3.488-1.873-.04-.381-.176-.163M250.616 39.953l-.229-.07-.215.165-2.729-.587 3.904-1.487.356-.902-.286-.067-.265.117-3.669-1.464-.026-.349-.265-.083-.462 1.267.338.12.313-.16 2.607 1.016-4.167 1.604-.186.626 4.356.965.184.205.162.074.28-.99M257.37 65.285c-.16.162-.773.745-1.404.759a.983.983 0 0 1-.733-.3l-.064-.071c-.208-.152-.303-.34-.32-.613-.004-.53.447-1.233.787-1.594.282-.286 1.312-1.371 2.124-.636l.119.107c.782.77-.276 2.103-.509 2.348zm1.59-.935c.036-.689-.101-1.275-.547-1.736l-.066-.077-.03-.031-.03-.021-.02-.02-.066-.054c-.49-.425-1.077-.563-1.768-.485a2.588 2.588 0 0 0-1.87 1.113c-.788.993-.777 2.273.155 3.196l.025.02h-.005l-.01-.01.015.01c.998.832 2.286.793 3.253-.013.57-.474.925-1.173.964-1.892zM264.9 71.229l1.695.37.017-.192-.37-.28.795-4.002.378-.014.027-.35-1.559-.276-.064.262.391.287-.787 3.864-.413.115-.11.216M277.82 69.388l.176.01.346 1.06c-.454.585-.878.864-1.614 1.023-1.42.31-2.713-.014-3.133-1.803-.618-1.947.632-2.722 2.093-3.15.448-.124.75-.13 1.228-.191l.269 1.054-.209.134c-.35-.427-.892-.559-1.422-.448-.784.21-1.275 1.14-1.003 1.904l2.351-.536.19-.425.23-.06.26 1.095-.24.054-.24-.152-2.318.554c.043.881.937 1.549 1.846 1.364.586-.098 1.244-.738 1.19-1.487M255.202 59.692l-.186.155.029.28-2.007 2.039.89-4.075-.563-.778-.198.197-.051.29-3.273 2.277-.317-.166-.198.176.844 1.097.286-.234.034-.347 2.255-1.618-.92 4.33.434.495 3.194-3.181.272-.05.146-.095-.671-.792M271.392 67.154l-.017.244.24.162.278 2.813-2.635-3.382-.912-.092.03.276.172.236-.315 4.002-.338.156-.002.265 1.322.021.027-.374-.232-.249.177-2.76 2.77 3.528.65-.007-.359-4.412.15-.25.014-.18-1.02.003M257.53 68.133l.125-.27.384.03 2.63-3.012-.127-.317.21-.249.816.35-.13 2.991 1.684-1.963-.083-.158.143-.102 1.185.48-.017.301-.208.102-.533 4.066.292.338-.08.238-1.392-.612.083-.297.252-.06.386-3.207-2.47 2.948-.495-.162.34-3.704-2.002 2.403.179.336-.078.18-1.093-.65M288.83 62.863l.158-.078.716.845c-.08.752-.329 1.2-.887 1.706-1.102 1.037-2.408 1.344-3.705-.038-1.378-1.468-.663-2.772.444-3.817.322-.32.59-.478.984-.764l.742.788-.105.22c-.535-.196-1.064-.05-1.467.317-.62.538-.598 1.573.027 2.09l1.838-1.576-.05-.458.157-.165.766.759-.173.164-.293-.004-1.849 1.722c.465.781 1.604.954 2.298.283.448-.38.67-1.29.398-1.994M294.608 38.08v-.183l1.087-.235c.61.454.875.873 1.044 1.6.353 1.422-.034 2.726-1.83 3.211-1.885.587-2.743-.664-3.133-2.13-.125-.431-.134-.744-.208-1.223l1.037-.28.136.216c-.41.35-.544.897-.412 1.425.188.802 1.092 1.26 1.857.964l-.523-2.355-.436-.179-.059-.231 1.116-.3.045.198-.156.304.589 2.368c.913-.027 1.598-.978 1.409-1.88-.12-.576-.812-1.206-1.563-1.29M291.079 37.143c-.464-.971-.725-2.4.539-2.722 1.052-.283 1.68.724 1.824 1.532l-2.363 1.19zm4.122-2.096l-1.221.61c-.002-.94.244-1.992.14-2.523-.175-.766-.413-.968-1.026-1.477l-.176.142c.176.31.25.307.37.77.16.65.142 1.067-.018 1.717-.352-.664-1.128-.933-1.96-.691-1.027.274-1.616 1.345-1.156 2.315l1.023 2.375.346-.152.088-.222 3.66-1.886.259.17.2-.063-.53-1.085zM292.543 47.634l.017-3.803-.313-1.032 1.302.826a.843.843 0 0 0-.322.142c-.136.138-.136.707-.159 1.56l4.176-.058.079-.182.215.006.007 1.5-.12-.002-.185-.352-4.14.067c.005.452-.06 1.127.067 1.227.046.044.13.094.237.132l-1.094.723.233-.754M296.917 51.243l.323-1.708-.194-.017-.295.347-4.025-.714-.038-.297-.343-.031-.214 1.571.254.03.253-.31 3.922.674.136.364.22.091M295.14 52.135l.175-.188.949.438c.194.775.162 1.323-.174 2.036-.68 1.323-1.67 2.213-3.547 1.438-1.826-.823-1.62-2.332-1.01-3.743.188-.435.373-.671.609-1.078l1.043.397-.08.282c-.55.028-.946.28-1.18.768-.391.783.217 1.484.938 2.05.72.544 2.288.31 2.698-.503.251-.545.105-1.357-.42-1.897M293.757 59.36l.869-1.534-.195-.007-.364.212-3.719-2.037.073-.294-.317-.138-.582 1.405.236.12.35-.215 3.462 1.947.029.378.158.162M290.877 63.223l2.42-2.772-.521-1.335-.343.35s.12.557.074.89c-.104.671-1.025 1.475-1.025 1.475l-3.137-2.603.135-.335-.283-.191-1.08 1.371.29.199.349-.159 3.047 2.558-.06.36.134.192M282.476 69.614l1.308-.71-.133-.16-.343-.053-.931-1.894s.776-.562 1.27-.665c.25-.06.64-.056.64-.056l-.474-.959s-.226.294-.393.454c-.372.359-1.32.681-1.32.681l-.659-1.385s.925-.66 1.521-.835c.191-.06.565-.13.565-.13s.016-.261.07-.413c.085-.255.326-.623.326-.623l-3.834 2.248.08.283.38-.004 1.85 3.68-.086.315.163.226M285.427 32.311l-11.358-1.789a2.935 2.935 0 0 1-2.715 4.076c-.024 0-.064-.003-.098-.003h-.005c-.035 0-.055.004-.09.004-1.617 0-2.868-1.313-2.868-2.942 0-.393.083-.791.219-1.135l-11.298 1.79c-.328-1.931-.491-3.72-.491-5.317 0-.58.03-1.111.069-1.658h6.754c1.857 0 2.012.195 2.1.283.123.115.154.42-.018.547-.403.252-1.023.552-1.023 1.464v.049c0 .733.644 1.007 2.184 1.62.443.168 1.995.78 1.995.78l.324-.184c.537-.276 1.691-1.052 1.691-2.379 0-.172-.02-.307-.04-.424a1.891 1.891 0 0 0-.192-.47v-.01c-.245-.457-.541-.591-.541-.591s.145-.631 1.054-.71l.002.004c.04-.008.065-.019.101-.019h.073c.455 0 .758.38.758.825 0 .557-.353.667-.353 1.395-.01 1.327 1.145 2.103 1.68 2.38l.35.184 2.018-.782c1.557-.612 2.185-.886 2.185-1.62v-.048c0-.912-.608-1.212-1.004-1.464-.2-.126-.167-.432-.026-.547.088-.088.25-.283 2.078-.283h6.916c.041.547.077 1.078.077 1.658 0 1.597-.177 3.386-.508 5.316zm-1.02 4.528l-9.586-4.39c3.37.523 8.265 1.294 10.26 1.604-.191.913-.413 1.82-.674 2.786zm-10.502-2.863l6.069 2.863h-4.169l-1.9-2.863zm8.62 8.787h-7.282v-4.145h8.663a80.585 80.585 0 0 1-1.381 4.145zm-10.363-5.924v-2.256l1.497 2.256h-1.497zm-3.283 0l1.49-2.256v2.256h-1.49zm12.703 8.384a95.325 95.325 0 0 1-1.486 3.458h-6.634V61.04c-.656.954-1.233 1.717-1.714 2.238a5.18 5.18 0 0 1-.492.469c-.128-.105-.326-.328-.47-.47-.484-.52-1.067-1.283-1.723-2.237V48.681h-6.55a70.266 70.266 0 0 1-1.467-3.458c-.09-.23-.186-.456-.272-.678h8.289v-5.927h4.4v5.927h8.388c-.084.222-.176.448-.269.678zm-6.339 13.015v-7.766h4.064c-1.368 2.896-2.768 5.575-4.064 7.766zm-7.9 0c-1.298-2.19-2.707-4.87-4.066-7.766h4.067v7.766zm-8.595-19.62h8.596v4.145h-7.237a68.478 68.478 0 0 1-1.359-4.145zm9.914-4.642l-1.897 2.863h-4.12l6.017-2.863zm-10.427 2.863a51.975 51.975 0 0 1-.675-2.786c1.976-.31 6.823-1.081 10.204-1.604l-9.529 4.39zm13.016-14.076h14.176c.07.266.136.552.186.842h-6.671c-2.827 0-4.036.688-4.036 2.343 0 .509.28 1.057.74 1.445-.323.131-1.677.616-1.875.704-.16-.183-.465-.473-.505-.923.13-.219.425-.67.425-1.321 0-1.015-.699-2.046-2.475-2.096-.82.031-1.338.272-1.753.604-.026.029-.047.05-.073.08-.739.206-1.204.718-1.204 1.376v.703s.326.033.512.104c.238.105.329.23.403.331.201.29.03.94-.377 1.142-.192-.088-1.549-.573-1.88-.704.467-.388.765-.936.765-1.445 0-1.655-1.221-2.343-4.063-2.343h-6.52c.06-.29.11-.576.188-.842h14.037zm-9.064-5.942c0-.547.175-1.261 1.753-1.261 1.282 0 1.798.196 2.017.353.107.068.25.176.25.721 0 0 0 2.831.003 4.344h-4.023V16.82zm7.155-4.94v.6c-1.049.317-1.934.957-2.529 1.863-.489-.297-1.093-.432-1.717-.495 1.21-.99 2.71-1.662 4.246-1.969zm-1.15-3.48h2.544V5.853h1.068v2.548h2.585v1.128h-2.585v2.591h-1.068V9.53h-2.545V8.4zm6.402 8.233v4.344h-6.608l-.003-4.344c0-1.245.825-2.687 3.268-2.687h.005c2.487 0 3.338 1.442 3.338 2.687zm2.887-2.785c-.622.063-1.214.198-1.716.495-.582-.906-1.467-1.546-2.583-1.863v-.6c1.598.306 3.098.977 4.3 1.968zm2.958 2.972v4.157h-4.067v-4.344c0-.545.146-.653.24-.72.223-.158.754-.354 2.04-.354 1.594 0 1.787.714 1.787 1.26zm6.513 4.766l-.216-.609h-4.511V16.82c0-1.153-.579-2.362-2.112-2.831-1.11-1.347-2.632-2.467-4.344-3.184V7.012h-2.587V4.46h-3.84v2.553h-2.534v3.794c-1.712.717-3.252 1.837-4.325 3.184-1.507.47-2.09 1.678-2.09 2.83v4.158h-4.495l-.195.609c-.543 1.658-.784 3.47-.784 5.45 0 6.116 2.26 13.276 4.47 18.855 3.352 8.437 7.786 16.072 10.093 18.615.55.55.992 1.035 1.724 1.064.01.007.034 0 .045 0h.005c.02 0 .034.007.051 0 .753-.03 1.201-.514 1.74-1.064 2.365-2.543 6.832-10.178 10.19-18.615 2.228-5.579 4.478-12.739 4.478-18.856 0-1.978-.209-3.791-.763-5.45z" fill="#1A1919"/></g></svg>